<?xml version="1.0" standalone="no"?>
<!DOCTYPE svg PUBLIC "-//W3C//DTD SVG 20010904//EN"
 "http://www.w3.org/TR/2001/REC-SVG-20010904/DTD/svg10.dtd">
<svg version="1.0" xmlns="http://www.w3.org/2000/svg"
 width="776.000000pt" height="1064.000000pt" viewBox="0 0 776.000000 1064.000000"
 preserveAspectRatio="xMidYMid meet">

<g transform="translate(0.000000,1064.000000) scale(0.100000,-0.100000)"
fill="#000000" stroke="none">
<path d="M317 7733 c-3 -2 -38 -5 -77 -5 -59 0 -70 -2 -66 -14 4 -10 2 -12 -7
-7 -6 4 -31 8 -55 8 -31 1 -41 -2 -38 -12 6 -16 1 -16 -24 -3 -14 7 -23 6 -34
-6 -14 -14 -16 -191 -16 -1793 l0 -1777 55 -23 c30 -12 56 -21 57 -19 2 2 16
-7 32 -19 16 -13 35 -23 43 -23 8 0 12 -4 8 -9 -3 -5 0 -13 6 -17 8 -4 9 -3 5
4 -9 15 -3 15 29 0 14 -6 25 -16 25 -21 0 -6 3 -7 6 -4 4 4 14 -1 23 -11 9 -9
22 -18 29 -19 6 -2 18 -4 25 -5 6 -2 14 -5 17 -8 4 -5 57 -31 70 -35 3 -1 21
-9 40 -17 19 -9 38 -14 42 -12 5 3 8 1 8 -5 0 -6 7 -7 17 -4 11 4 14 3 9 -5
-5 -8 0 -12 13 -12 11 0 22 -4 25 -9 3 -5 18 -12 33 -16 15 -3 30 -10 33 -13
8 -11 78 -45 83 -41 3 2 14 -4 24 -14 11 -9 23 -14 26 -10 4 3 7 1 7 -6 0 -7
4 -10 9 -6 5 3 12 1 16 -5 8 -12 76 -44 89 -41 5 1 16 -5 25 -13 10 -9 32 -21
49 -27 18 -6 29 -15 26 -20 -3 -5 4 -9 15 -9 12 0 21 -5 21 -11 0 -5 4 -8 9
-5 4 3 17 -1 27 -9 10 -8 29 -15 40 -15 12 0 25 -7 28 -16 3 -8 10 -12 16 -9
5 3 10 1 10 -5 0 -6 10 -15 23 -20 12 -6 40 -21 62 -35 22 -14 50 -30 63 -35
12 -5 32 -18 43 -28 11 -11 37 -25 59 -32 22 -7 40 -18 40 -23 0 -6 3 -8 6 -4
4 3 21 -4 38 -17 17 -13 54 -31 81 -41 28 -9 57 -22 65 -30 8 -7 25 -16 37
-19 13 -4 23 -12 23 -17 0 -6 5 -7 10 -4 5 3 10 1 10 -4 0 -11 82 -56 170 -95
25 -11 48 -25 52 -31 5 -6 8 -6 8 2 0 7 7 10 15 7 8 -4 12 -10 9 -16 -3 -5 2
-8 12 -6 11 2 18 -2 17 -9 -2 -7 2 -13 7 -13 6 0 10 6 10 13 1 7 6 5 14 -5 7
-10 19 -18 25 -18 7 0 9 -5 5 -12 -4 -7 -4 -10 1 -6 4 4 29 -4 56 -18 27 -13
52 -24 56 -24 25 2 105 -25 110 -36 3 -8 9 -12 13 -9 5 3 11 1 15 -4 3 -6 12
-8 20 -4 8 3 15 1 15 -4 0 -11 72 -36 110 -38 14 -1 35 -7 47 -13 11 -6 23 -9
26 -6 3 3 23 0 44 -7 21 -7 41 -14 46 -15 4 -1 8 -3 10 -4 3 -3 57 -11 92 -13
17 -1 32 -5 35 -9 11 -14 175 -26 320 -23 165 5 185 6 295 25 39 7 76 13 83
13 6 0 12 5 12 10 0 5 6 7 14 4 8 -3 17 -3 20 0 10 10 105 40 100 31 -3 -4 2
-5 10 -2 9 3 16 11 16 17 0 6 3 8 6 4 4 -3 21 0 38 7 17 7 37 11 44 9 6 -3 12
0 12 6 0 6 5 11 11 11 18 0 159 72 159 82 0 4 6 8 13 8 20 0 179 81 172 88 -3
3 13 16 35 29 22 13 40 29 40 34 0 6 4 7 10 4 12 -7 330 310 367 366 14 22 29
39 33 39 5 0 13 14 19 30 5 17 17 33 25 36 9 3 13 10 10 15 -3 5 -1 9 5 9 5 0
21 25 36 55 14 30 29 55 33 55 4 0 8 10 9 21 1 12 9 29 18 39 9 10 18 24 19
32 7 30 39 97 45 93 4 -2 8 8 9 21 1 14 6 33 12 43 5 10 6 21 3 25 -3 3 -2 6
4 6 5 0 10 7 10 15 0 13 17 79 31 115 3 8 6 23 7 32 1 9 7 30 13 45 6 15 14
51 18 78 4 28 9 57 10 65 5 24 16 251 14 300 0 25 -3 54 -7 65 -3 11 -6 35 -7
55 -1 19 -4 40 -8 45 -3 6 -11 39 -18 75 -6 36 -18 92 -27 125 -9 33 -16 66
-16 73 0 6 -4 12 -9 12 -4 0 -8 11 -8 25 0 14 -4 25 -10 25 -5 0 -9 3 -8 8 4
14 -13 52 -23 52 -6 0 -8 4 -4 9 6 10 -37 115 -57 139 -7 8 -14 23 -15 35 -2
12 -12 31 -23 42 -11 12 -20 27 -20 33 0 7 -3 12 -7 12 -5 0 -24 24 -43 54
-19 30 -39 52 -45 49 -5 -4 -7 -3 -3 2 9 10 -17 46 -76 109 -25 26 -46 52 -46
57 0 6 -4 7 -10 4 -5 -3 -10 0 -10 7 0 8 -8 21 -17 29 -28 25 -63 68 -63 78 0
5 -8 12 -17 15 -16 5 -79 60 -169 147 -16 16 -35 29 -42 29 -6 0 -15 6 -19 13
-9 14 -69 57 -80 57 -4 0 -19 12 -32 25 -13 14 -28 25 -35 25 -6 0 -26 13 -45
29 -19 17 -39 27 -44 24 -6 -3 -7 -1 -4 4 6 10 -2 16 -31 25 -4 1 -17 12 -30
25 -13 13 -29 23 -37 23 -7 0 -15 4 -17 8 -1 4 -47 30 -101 56 -53 27 -100 53
-103 57 -3 5 -10 7 -15 4 -5 -4 -9 -1 -9 6 0 7 -3 9 -6 6 -4 -3 -16 -1 -28 5
-11 7 -27 12 -34 13 -7 0 -17 6 -21 14 -5 8 -15 11 -23 8 -8 -3 -20 4 -27 14
-6 11 -15 17 -20 15 -4 -3 -16 1 -27 8 -10 8 -24 12 -30 9 -7 -2 -15 1 -19 6
-3 6 -11 9 -16 6 -5 -4 -9 -1 -9 4 0 6 -9 11 -20 11 -11 0 -20 4 -20 9 0 6 -9
8 -20 6 -11 -2 -18 0 -15 4 4 7 -19 19 -47 25 -4 0 -13 7 -20 14 -6 6 -18 12
-25 12 -8 0 -28 8 -46 17 -18 9 -38 16 -44 15 -7 -2 -13 1 -13 6 0 6 -49 29
-80 37 -9 3 -45 17 -77 31 -17 8 -36 14 -42 14 -15 0 -85 33 -89 43 -2 4 -13
7 -24 7 -10 0 -26 6 -33 14 -14 14 -210 89 -232 89 -7 0 -13 4 -13 9 0 4 -9 8
-20 8 -11 0 -20 5 -20 10 0 6 -11 10 -25 10 -14 0 -25 5 -25 10 0 6 -8 10 -18
10 -10 0 -28 9 -40 20 -12 12 -22 18 -22 14 0 -4 -8 -1 -17 7 -10 8 -63 37
-118 64 -55 28 -103 55 -108 62 -4 6 -39 19 -77 29 -47 13 -70 23 -71 34 0 11
-2 11 -6 2 -4 -10 -9 -9 -24 4 -10 9 -19 14 -19 10 0 -4 -10 -1 -22 6 -13 6
-30 13 -38 14 -8 2 -16 8 -18 13 -2 6 -10 11 -18 11 -8 0 -14 5 -14 11 0 5 -5
7 -10 4 -6 -4 -16 -2 -23 3 -7 5 -27 13 -44 17 -18 3 -33 11 -33 16 0 10 -49
34 -62 31 -5 -1 -8 2 -8 7 0 5 -11 12 -24 15 -14 3 -31 12 -38 19 -18 18 -97
49 -109 42 -5 -4 -9 -1 -9 4 0 6 -3 10 -7 9 -17 -3 -63 15 -63 25 0 6 -3 7 -6
4 -4 -3 -15 -2 -26 4 -11 6 -27 12 -36 14 -36 7 -47 10 -52 15 -3 3 -16 11
-29 18 -19 11 -22 11 -15 0 6 -10 4 -10 -7 -2 -8 6 -34 17 -59 24 -25 7 -51
18 -57 23 -7 5 -13 6 -13 2 0 -4 -6 -3 -13 3 -7 6 -32 13 -55 14 -23 2 -42 6
-42 9 0 3 -6 6 -12 6 -7 0 -51 7 -98 16 -47 9 -107 19 -135 22 -76 8 -272 14
-278 8z"/>
</g>
</svg>
