<?xml version="1.0" standalone="no"?>
<!DOCTYPE svg PUBLIC "-//W3C//DTD SVG 20010904//EN"
 "http://www.w3.org/TR/2001/REC-SVG-20010904/DTD/svg10.dtd">
<svg version="1.0" xmlns="http://www.w3.org/2000/svg"
 width="785.000000pt" height="589.000000pt" viewBox="0 0 785.000000 589.000000"
 preserveAspectRatio="xMidYMid meet">

<g transform="translate(0.000000,589.000000) scale(0.100000,-0.100000)"
fill="#000000" stroke="none">
<path d="M4730 5180 c-21 -21 -28 -43 -32 -100 -3 -34 -5 -35 -50 -40 -85 -10
-106 -50 -157 -294 -33 -156 -33 -192 0 -222 18 -17 20 -16 45 7 15 13 37 46
49 72 13 27 26 44 30 38 3 -6 11 -11 16 -11 6 0 2 12 -9 28 -26 37 -32 67 -21
107 10 34 50 75 75 75 7 0 20 -8 29 -17 14 -13 16 -28 10 -78 -5 -51 -4 -63 9
-68 24 -10 44 18 56 81 6 31 12 60 13 64 1 4 22 -6 46 -22 67 -46 102 -52 182
-33 63 16 71 16 103 1 28 -14 38 -29 61 -87 34 -89 56 -118 104 -132 31 -9 49
-8 94 5 143 41 183 155 98 273 -35 49 -84 73 -148 73 l-49 0 -12 46 c-24 88
-104 139 -157 100 -18 -13 -22 -10 -50 42 -35 63 -66 90 -116 101 -51 11 -97
-3 -136 -40 -20 -20 -34 -28 -33 -19 9 67 -12 88 -50 50z"/>
<path d="M4625 5109 c11 -6 31 -23 43 -38 20 -22 22 -22 13 -4 -12 24 -49 53
-66 53 -5 0 -1 -5 10 -11z"/>
<path d="M2149 4859 c-7 -13 -2 -20 22 -29 36 -15 32 -25 -5 -11 -21 9 -26 8
-26 -5 0 -31 33 -84 91 -147 l58 -64 53 18 c29 10 63 18 75 19 33 0 54 27 47
58 -18 75 -71 139 -137 167 -50 21 -165 17 -178 -6z"/>
<path d="M3808 4540 c-36 -4 -91 -14 -122 -21 l-56 -12 0 -46 c0 -156 59 -421
94 -421 7 0 82 97 166 215 84 118 155 213 158 211 2 -3 -86 -131 -197 -285
l-201 -281 221 0 220 0 24 -25 c24 -23 25 -29 25 -164 0 -77 -3 -147 -6 -156
-16 -42 -46 -45 -413 -45 -226 0 -352 -4 -356 -10 -4 -6 -10 -8 -15 -5 -5 3
-12 0 -16 -6 -5 -8 -3 -9 6 -4 8 5 11 3 8 -6 -3 -8 -11 -14 -19 -14 -8 -1 -13
-7 -11 -13 1 -7 -17 -41 -42 -75 -24 -34 -53 -82 -65 -105 -22 -43 -22 -45 -4
-65 18 -20 17 -20 -2 -13 -55 21 -219 58 -301 67 -211 23 -415 -40 -533 -164
l-34 -36 73 -123 c70 -116 246 -384 290 -438 18 -23 20 -23 20 -5 1 28 37 106
62 133 33 34 89 45 156 32 69 -15 178 -64 258 -116 32 -22 64 -43 71 -47 8 -5
32 32 73 109 112 209 72 113 -78 -186 -81 -162 -156 -321 -166 -352 l-19 -57
83 -98 c139 -164 302 -343 411 -448 l104 -100 6 100 c7 107 40 246 88 370 16
41 25 72 20 69 -5 -3 -9 -3 -9 0 0 7 170 304 297 518 58 98 104 180 102 181
-2 2 -36 15 -74 30 -136 52 -405 214 -722 436 -83 58 -150 107 -148 110 3 2
28 -13 57 -33 272 -193 602 -401 751 -472 161 -76 109 -119 433 363 208 308
311 473 394 626 62 114 115 206 117 203 2 -2 -29 -66 -71 -142 -111 -207 -106
-182 -56 -253 24 -34 46 -61 50 -61 12 0 152 151 219 235 34 43 73 100 87 127
l25 50 -68 76 c-131 146 -370 341 -441 359 -14 3 -30 -1 -41 -12 -26 -23 -105
-45 -162 -45 -40 0 -51 4 -72 29 -30 36 -40 85 -27 131 6 19 10 38 10 42 0 13
-136 77 -233 110 -80 27 -108 32 -212 34 -66 1 -150 -1 -187 -6z m592 -186
c-26 -66 -1 -153 51 -179 45 -24 175 -16 242 13 26 12 45 18 42 13 -14 -24
-118 -51 -194 -51 -86 0 -118 15 -146 70 -22 43 -18 160 6 160 5 0 4 -12 -1
-26z"/>
<path d="M5223 3758 c-38 -66 -125 -174 -230 -285 -64 -68 -76 -86 -67 -98 6
-8 18 -13 27 -10 17 7 172 181 234 263 67 89 89 136 77 163 -10 21 -12 19 -41
-33z"/>
<path d="M1640 3695 c-64 -16 -77 -29 -169 -176 -233 -374 -337 -723 -287
-959 51 -240 266 -483 562 -637 l79 -41 190 376 190 376 3 -90 3 -89 102 -67
c125 -81 206 -122 316 -159 47 -16 85 -29 85 -29 1 0 0 59 -2 131 l-4 130
-122 182 c-68 100 -154 233 -191 295 -37 61 -68 112 -70 112 -10 0 -65 -103
-75 -140 -19 -75 -21 -80 -34 -80 -22 0 -197 93 -276 147 -116 78 -257 238
-320 363 -47 94 -79 223 -59 235 5 4 9 -9 9 -28 0 -79 59 -215 143 -327 51
-68 187 -210 201 -210 10 1 301 499 294 505 -19 16 -289 150 -330 164 -78 27
-171 33 -238 16z m174 -185 c66 -23 157 -72 177 -97 8 -10 -4 -5 -31 11 -71
43 -148 76 -214 91 -52 11 -56 13 -25 14 20 1 62 -8 93 -19z m-284 -135 c81
-211 333 -443 620 -569 36 -16 66 -30 68 -31 7 -6 -410 -825 -419 -825 -18 0
-146 79 -228 140 -151 114 -272 266 -323 406 -26 73 -36 242 -19 341 25 143
117 374 224 561 32 57 43 70 48 55 4 -10 17 -45 29 -78z"/>
<path d="M7375 3562 c-33 -16 -226 -104 -430 -197 -203 -92 -379 -176 -390
-187 -18 -17 -20 -30 -17 -146 l3 -128 -216 -94 c-119 -52 -221 -100 -227
-107 -5 -7 -8 -23 -4 -36 4 -18 49 -43 233 -130 l228 -107 490 205 c269 113
491 205 493 205 5 0 -4 348 -15 583 -6 150 -13 167 -61 167 -15 0 -54 -13 -87
-28z m-298 -555 c-17 -42 -35 -77 -39 -77 -4 0 5 26 19 58 14 31 29 68 34 81
5 13 12 22 14 19 3 -2 -10 -39 -28 -81z m72 11 c-17 -40 -35 -77 -41 -83 -5
-5 -2 8 7 30 9 22 24 59 33 83 9 23 20 42 24 42 4 0 -7 -33 -23 -72z"/>
<path d="M5160 2700 c-73 -148 -132 -271 -129 -273 2 -2 19 -14 37 -26 69 -48
80 -124 33 -215 l-30 -55 37 -8 c56 -12 166 -6 230 12 111 33 169 72 246 168
146 179 134 342 -37 503 -67 63 -183 142 -233 158 -17 5 -35 -25 -154 -264z
m241 92 c87 -56 146 -140 174 -249 17 -65 19 -87 6 -79 -4 3 -11 27 -15 53
-13 101 -91 216 -183 270 -24 14 -43 27 -43 29 0 10 19 2 61 -24z m83 -437
c-1 -62 -16 -102 -62 -162 -13 -18 -28 -33 -33 -33 -5 0 6 20 25 45 19 24 40
61 46 81 12 34 9 109 -5 164 -6 22 -4 22 12 -5 11 -20 17 -50 17 -90z"/>
<path d="M2215 2368 c11 -125 34 -260 61 -352 28 -100 87 -224 110 -233 8 -3
51 5 95 17 44 13 81 21 83 19 3 -2 -18 -35 -46 -73 -44 -60 -49 -73 -41 -95 7
-20 1 -60 -25 -164 -29 -114 -33 -142 -23 -163 6 -14 16 -24 21 -22 5 2 81
110 170 241 164 243 176 269 150 318 -8 14 -7 21 3 25 11 4 9 21 -10 92 -13
48 -28 114 -34 147 l-10 61 -75 23 c-100 31 -228 95 -342 170 l-93 61 6 -72z"/>
<path d="M4477 1912 l-257 -426 57 -59 c123 -124 224 -167 388 -168 183 0 280
52 385 206 l34 50 -68 -63 c-76 -71 -157 -115 -248 -137 -79 -18 -124 -18
-213 0 -69 14 -262 103 -285 131 -10 11 38 96 232 418 133 223 246 406 250
406 4 0 71 -41 149 -90 110 -71 157 -94 208 -107 77 -18 192 -13 261 11 24 8
45 14 47 12 1 -1 -60 -110 -137 -242 -77 -131 -140 -245 -140 -252 0 -18 -73
-142 -106 -182 -46 -55 -19 -42 37 17 49 52 173 255 483 793 l20 35 -46 -42
c-86 -77 -210 -122 -340 -123 -99 0 -195 45 -352 164 -45 34 -86 65 -91 68 -6
4 -122 -179 -268 -420z"/>
<path d="M3061 1967 c-5 -13 -24 -82 -43 -153 -31 -120 -33 -140 -32 -289 0
-148 2 -166 28 -245 72 -217 244 -481 493 -758 l48 -54 46 64 c26 34 92 130
147 211 l100 148 -39 74 c-48 89 -95 214 -114 307 l-15 68 -157 157 c-87 87
-223 233 -302 326 -79 92 -145 167 -147 167 -3 0 -9 -11 -13 -23z"/>
<path d="M4204 1458 c-8 -13 33 -51 88 -82 29 -16 26 -11 -22 38 -30 31 -55
56 -57 56 -1 0 -5 -5 -9 -12z"/>
<path d="M3730 669 c-91 -125 -101 -143 -92 -163 8 -19 3 -52 -23 -157 -19
-74 -32 -143 -28 -154 16 -56 24 -48 189 197 193 286 194 287 118 368 -26 28
-50 50 -54 50 -4 0 -54 -63 -110 -141z"/>
</g>
</svg>
