<?xml version="1.0" standalone="no"?>
<!DOCTYPE svg PUBLIC "-//W3C//DTD SVG 20010904//EN"
 "http://www.w3.org/TR/2001/REC-SVG-20010904/DTD/svg10.dtd">
<svg version="1.0" xmlns="http://www.w3.org/2000/svg"
 width="1200.000000pt" height="600.000000pt" viewBox="0 0 1200.000000 600.000000"
 preserveAspectRatio="xMidYMid meet">

<g transform="translate(0.000000,600.000000) scale(0.100000,-0.100000)"
fill="#000000" stroke="none">
<path d="M2930 3235 l0 -1065 700 0 700 0 0 130 0 130 -570 0 -570 0 0 935 0
935 -130 0 -130 0 0 -1065z"/>
<path d="M5995 3067 l0 -1027 518 0 517 0 0 130 0 130 -390 0 -390 0 0 375 0
375 390 0 390 0 0 125 0 125 -390 0 -390 0 0 265 0 265 390 0 390 0 0 125 0
125 -317 0 c-175 0 -408 3 -518 7 l-200 6 0 -1026z"/>
<path d="M7433 4082 l-53 -3 0 -137 c0 -75 9 -524 20 -997 11 -473 20 -875 20
-892 l0 -33 125 0 125 0 0 98 c0 94 -26 1325 -33 1585 l-4 127 479 0 478 0 0
-890 0 -890 130 0 130 0 -2 1017 -3 1017 -680 1 c-374 0 -704 -1 -732 -3z"/>
<path d="M4460 3322 c0 -418 -3 -847 -7 -955 l-6 -197 621 0 622 0 0 955 0
955 -125 0 -125 0 0 -825 0 -825 -365 0 -365 0 0 825 0 825 -125 0 -125 0 0
-758z"/>
</g>
</svg>
